<svg width="30" height="26" viewBox="0 0 30 26" fill="none" xmlns="http://www.w3.org/2000/svg">
<g clip-path="url(#clip0_386_116)">
<path d="M23.75 1.54102H6.25C4.59301 1.54267 3.00445 2.09193 1.83277 3.06833C0.661102 4.04472 0.00198482 5.36852 0 6.74935L0 19.2493C0.00198482 20.6302 0.661102 21.954 1.83277 22.9304C3.00445 23.9068 4.59301 24.456 6.25 24.4577H23.75C25.407 24.456 26.9956 23.9068 28.1672 22.9304C29.3389 21.954 29.998 20.6302 30 19.2493V6.74935C29.998 5.36852 29.3389 4.04472 28.1672 3.06833C26.9956 2.09193 25.407 1.54267 23.75 1.54102V1.54102ZM6.25 3.62435H23.75C24.4985 3.62558 25.2294 3.81343 25.8487 4.16373C26.468 4.51403 26.9473 5.01075 27.225 5.58997L17.6525 13.5681C16.948 14.1528 15.9943 14.4811 15 14.4811C14.0057 14.4811 13.052 14.1528 12.3475 13.5681L2.775 5.58997C3.05269 5.01075 3.53202 4.51403 4.15131 4.16373C4.7706 3.81343 5.50152 3.62558 6.25 3.62435V3.62435ZM23.75 22.3743H6.25C5.25544 22.3743 4.30161 22.0451 3.59835 21.4591C2.89509 20.873 2.5 20.0781 2.5 19.2493V8.31185L10.58 15.041C11.7533 16.0163 13.3428 16.564 15 16.564C16.6572 16.564 18.2467 16.0163 19.42 15.041L27.5 8.31185V19.2493C27.5 20.0781 27.1049 20.873 26.4017 21.4591C25.6984 22.0451 24.7446 22.3743 23.75 22.3743Z" fill="white"/>
</g>
<defs>
<clipPath id="clip0_386_116">
<rect width="30" height="25" fill="white" transform="translate(0 0.5)"/>
</clipPath>
</defs>
</svg>
